<svg width="25" height="29" viewBox="0 0 25 29" fill="none" xmlns="http://www.w3.org/2000/svg">
<path d="M10.6051 2.00708C9.60977 2.94157 6.85898 5.52739 4.49375 7.75044L0.195312 11.7931L0.200781 20.1281L0.208984 28.4631L0.269141 28.5821C0.301953 28.6489 0.38125 28.7504 0.444141 28.8056C0.671094 29.0145 0.378516 29 4.7125 29H8.61719L8.62266 25.3056C8.63086 21.6315 8.63086 21.614 8.68828 21.4834C8.75937 21.3151 8.89609 21.17 9.05469 21.0946C9.17773 21.0336 9.19687 21.0336 12.4016 21.0249C15.9672 21.0162 15.8141 21.0104 16.0164 21.199C16.1586 21.3325 16.2379 21.4805 16.2707 21.6721C16.2926 21.7882 16.3008 22.9897 16.3008 25.4217V29L20.3586 28.9942L24.4191 28.9855L24.5012 28.9014C24.5477 28.8549 24.6242 28.7185 24.6734 28.5966L24.7637 28.3761L24.7691 20.0759L24.7746 11.7757L18.6496 6.04398C15.177 2.79356 12.5 0.309317 12.4699 0.309317C12.4344 0.306416 11.7945 0.889748 10.6051 2.00708Z" fill="#41522E"/>
</svg>
