<svg width="35" height="19" viewBox="0 0 35 19" fill="none" xmlns="http://www.w3.org/2000/svg">
<path d="M15.9359 1.33499C15.1648 2.06053 12.0586 4.98008 9.03711 7.82127C6.01289 10.6596 3.11719 13.3847 2.59766 13.8722C2.07812 14.3598 1.33984 15.0534 0.957031 15.4104C0.574219 15.7702 0.202344 16.1214 0.13125 16.1939L0 16.3245L0.902344 17.3983C1.39727 17.9875 1.82109 18.4692 1.84023 18.4692C1.86211 18.4663 3.48906 16.9572 5.45781 15.1143C15.7883 5.44442 17.4562 3.88887 17.4754 3.89468C17.4863 3.90048 18.7605 5.09326 20.3082 6.54723C21.8531 8.0012 25.3449 11.2806 28.0629 13.8374C30.7809 16.3942 33.0176 18.4866 33.0312 18.4866C33.0449 18.4866 33.0641 18.4721 33.0723 18.4576C33.0859 18.4344 33.1023 18.4373 33.1297 18.4605C33.1816 18.504 33.1023 18.5911 34.0566 17.4419C34.475 16.9398 34.8578 16.4813 34.9098 16.4232L35.0027 16.3187L32.7113 14.1741C31.4508 12.9929 28.4895 10.2184 26.127 8.00991C23.7672 5.79848 20.8797 3.09659 19.7094 2.00248L17.5875 0.0145172H17.4645H17.3414L15.9359 1.33499Z" fill="#41522E"/>
</svg>
